<?xml version="1.0" encoding="UTF-8" standalone="no"?>
<!-- Created with Inkscape (http://www.inkscape.org/) -->

<svg
   xmlns:dc="http://purl.org/dc/elements/1.1/"
   xmlns:cc="http://creativecommons.org/ns#"
   xmlns:rdf="http://www.w3.org/1999/02/22-rdf-syntax-ns#"
   xmlns:svg="http://www.w3.org/2000/svg"
   xmlns="http://www.w3.org/2000/svg"
   xmlns:sodipodi="http://sodipodi.sourceforge.net/DTD/sodipodi-0.dtd"
   xmlns:inkscape="http://www.inkscape.org/namespaces/inkscape"
   version="1.0"
   width="400"
   height="400.22308"
   id="svg2"
   inkscape:version="0.91 r13725"
   sodipodi:docname="Comunas_de_Santiago_(nombres).svg">
  <metadata
     id="metadata129">
    <rdf:RDF>
      <cc:Work
         rdf:about="">
        <dc:format>image/svg+xml</dc:format>
        <dc:type
           rdf:resource="http://purl.org/dc/dcmitype/StillImage" />
        <dc:title></dc:title>
      </cc:Work>
    </rdf:RDF>
  </metadata>
  <sodipodi:namedview
     pagecolor="#ffffff"
     bordercolor="#666666"
     borderopacity="1"
     objecttolerance="10"
     gridtolerance="10"
     guidetolerance="10"
     inkscape:pageopacity="0"
     inkscape:pageshadow="2"
     inkscape:window-width="1366"
     inkscape:window-height="744"
     id="namedview127"
     showgrid="false"
     fit-margin-top="0"
     fit-margin-left="0"
     fit-margin-right="0"
     fit-margin-bottom="0"
     inkscape:zoom="0.42909091"
     inkscape:cx="256.39005"
     inkscape:cy="-298.31628"
     inkscape:window-x="0"
     inkscape:window-y="24"
     inkscape:window-maximized="1"
     inkscape:current-layer="svg2" />
  <defs
     id="defs1941" />
  <path
     inkscape:connector-curvature="0"
     d="m 32.786612,282.48367 14.859136,14.68636 -5.356199,3.4556 -3.801174,-3.80118 -5.528981,5.70178 -2.93727,-2.24615 -4.837858,5.87453 3.801175,3.11005 -2.937272,2.76449 2.59171,1.55503 -5.183419,11.74909 -5.701761,0.86389 -6.392884,-6.91122 7.429567,-4.83785 -2.418929,-2.59173 3.110052,-2.24613 -3.973954,-4.83788 -4.146736,-0.6911 -8.1206899,10.19405 -3.11005095,-1.55502 13.82245185,-13.99523 -8.1206912,-10.53962 0,-2.24615 6.3928832,-3.45561 3.801175,6.39288 3.973953,-2.07336 4.319517,3.62837 8.466249,-7.94789 z"
     style="fill:#ffff00;fill-opacity:1;fill-rule:evenodd;stroke:#000000;stroke-width:0.15603298;stroke-linecap:butt;stroke-linejoin:miter;stroke-miterlimit:4;stroke-dasharray:none;stroke-opacity:1"
     id="Padre Hurtado" />
  <path
     inkscape:connector-curvature="0"
     d="m 47.594664,297.06185 -20.306981,-19.65192 10.153491,-8.51584 -10.481023,-7.53324 3.602852,-11.79115 c 0.764241,-11.35444 -3.867636,-31.34266 2.292724,-34.06332 l 27.185156,-7.20571 -14.083879,-4.58544 24.564897,-16.04908 -5.88356,-10.62976 -0.012,-3.78163 25.547491,5.2405 -0.327528,4.25792 5.236194,-4.41952 0.161603,2.13111 9.996209,3.27102 -2.03736,11.1404 -6.325503,0.15296 -0.152966,14.58165 c -1.200955,-0.27597 -2.401902,1.75145 -3.602857,5.56805 l -4.585451,11.79115 16.704137,0 5.2405,4.25793 -46.509534,69.10923 -16.376597,-3.27531 z"
     style="fill:#ffcc00;fill-opacity:1;fill-rule:evenodd;stroke:#000000;stroke-width:0.15603298;stroke-linecap:butt;stroke-linejoin:miter;stroke-miterlimit:4;stroke-dasharray:none;stroke-opacity:1"
     id="Maipú" />
  <path
     inkscape:connector-curvature="0"
     d="m 105.24029,183.73579 -2.03736,11.1404 -6.325497,0.15296 -0.152966,14.58165 c -1.200956,-0.27597 -2.401902,1.75145 -3.602857,5.56805 l -4.585451,11.79115 16.704131,0 5.24051,4.25793 -8.4407,12.57466 19.88779,8.83398 0.36359,-10.3507 19.03893,-51.26663 -0.34404,-3.76339 -25.92311,6.66085 -9.82297,-10.18091 z"
     style="fill:#ffe680;fill-opacity:1;fill-rule:evenodd;stroke:#000000;stroke-width:0.15603298;stroke-linecap:butt;stroke-linejoin:miter;stroke-miterlimit:4;stroke-dasharray:none;stroke-opacity:1"
     id="Cerrillos" />
  <path
     inkscape:connector-curvature="0"
     d="m 95.908842,162.79703 0.551296,15.62494 -1.440598,-0.10303 0.205799,2.36673 9.981311,3.087 9.77552,10.18712 26.34245,-6.79142 12.14222,0.20581 -0.3087,-6.79142 -6.3798,0.4116 c 1.36937,-3.95504 0.75459,-15.84663 1.13188,-23.76994 l -1.54348,-0.4116 0,-7.20301 -12.34803,0.6174 0,3.91021 -13.99954,0.84462 0.7203,10.49581 c -5.95359,2.48753 -7.45763,1.48361 -9.7704,1.11049 l -15.060228,-3.79139 z"
     style="fill:#ffeeaa;fill-opacity:1;fill-rule:evenodd;stroke:#000000;stroke-width:0.15603298;stroke-linecap:butt;stroke-linejoin:miter;stroke-miterlimit:4;stroke-dasharray:none;stroke-opacity:1"
     id="Estación Central" />
  <path
     inkscape:connector-curvature="0"
     d="m 40.438712,52.944436 16.060794,15.283656 4.921856,5.698997 8.28944,6.21708 -24.609281,25.645461 -0.518092,13.72938 3.108544,0.51809 0.259046,1.55428 1.813314,2.8495 2.331405,2.84948 3.108544,2.3314 4.403759,1.03619 1.036184,-2.59045 1.813313,2.59045 4.403767,1.55427 6.994217,0.25905 3.367581,1.55427 6.735173,0.25905 2.331406,-0.25905 -0.259046,18.39219 2.024294,0.40861 -0.05344,8.17995 8.032632,1.85313 0.435496,15.57229 -1.335017,-0.0572 -5.365227,4.53173 0.345442,-4.28376 -26.103022,-5.4811 -0.777132,-5.43995 c -1.132588,-4.99879 -6.456927,-2.07985 -10.102761,-2.33139 0.827974,4.59681 -3.097825,6.13761 -6.476127,8.03039 -2.066866,-3.81292 -8.880686,-3.35356 -13.729382,-4.6628 l -0.777136,3.62661 c -5.650028,0.5218 -10.118911,-3.62454 -12.175116,-1.81332 -1.440791,-1.19604 -0.712718,-4.12718 -4.921856,-3.10854 -2.922041,0.0822 -4.521681,1.06913 -1.554271,5.1809 -2.769493,5.67938 -5.8797154,3.18125 -8.9494929,1.6538 l -3.1407381,-7.44498 2.3884829,-5.66387 3.4846683,-2.79241 c -2.1981912,-0.52449 -3.6820768,-2.02302 -2.4733679,-7.19328 1.5270737,-2.32857 4.3754116,-3.74876 1.1883871,-9.31828 l 4.3188806,-3.13342 -0.7024948,-4.44622 12.4341618,-4.40376 -0.10976,-2.38117 3.835914,1.50452 3.00902,-3.78616 -1.295224,-7.51231 2.849496,0.25905 C 31.377225,101.93442 25.20705,79.37129 28.522625,68.228077 L 41.474876,67.191901 40.438696,52.94442 Z"
     style="fill:#ff7f2a;fill-opacity:1;fill-rule:evenodd;stroke:#000000;stroke-width:0.15603298;stroke-linecap:butt;stroke-linejoin:miter;stroke-miterlimit:4;stroke-dasharray:none;stroke-opacity:1"
     id="Pudahuel" />
  <path
     inkscape:connector-curvature="0"
     d="m 86.180389,141.21748 -0.168618,11.21008 2.011274,0.46006 -0.06141,8.23052 22.726065,5.40511 c 4.81854,1.57944 7.91124,-0.18844 10.07317,-1.04416 l -0.72953,-10.50251 -0.43749,-12.22356 -14.49553,-1.47411 -0.42996,2.8254 -7.124927,-3.25537 -11.363031,0.36854 z"
     style="fill:#ffb380;fill-opacity:1;fill-rule:evenodd;stroke:#000000;stroke-width:0.15603298;stroke-linecap:butt;stroke-linejoin:miter;stroke-miterlimit:4;stroke-dasharray:none;stroke-opacity:1"
     id="Lo Prado " />
  <path
     inkscape:connector-curvature="0"
     d="m 44.583429,119.51901 0.115893,-3.97036 9.996652,0.0826 0.33047,1.23924 3.635139,0.0826 5.617953,-2.80897 8.84001,-0.0826 23.380591,0 2.478506,0.9914 3.635147,-2.31327 2.23066,0 4.8744,3.71777 -5.12225,27.67667 -7.085314,-3.21384 -11.320841,0.36467 0.09924,-7.2594 -2.331407,0.25904 -6.735172,-0.25904 -3.36758,-1.55427 -6.994219,-0.25904 -4.403766,-1.55428 -1.813313,-2.59045 -1.036183,2.59045 -4.403759,-1.03619 -3.108544,-2.3314 -2.331406,-2.84948 -1.813314,-2.84951 -0.259046,-1.55427 -3.108544,-0.51808 z"
     style="fill:#ff6600;fill-opacity:1;fill-rule:evenodd;stroke:#000000;stroke-width:0.15603298;stroke-linecap:butt;stroke-linejoin:miter;stroke-miterlimit:4;stroke-dasharray:none;stroke-opacity:1"
     id="Cerro Navia" />
  <path
     inkscape:connector-curvature="0"
     d="m 145.58381,189.7155 9.59159,0.34255 0,-3.08302 -2.05533,0 31.17263,0.68512 16.27142,-7.53623 -11.81818,-41.7919 -35.24011,-9.7022 0.29934,2.33725 c -3.19624,-0.0735 -8.60823,-4.70593 -8.90646,1.37023 l 0.8564,11.13307 -11.8182,0.68512 0.0818,6.07183 12.34802,-0.6174 0,7.20301 1.5435,0.4116 c -0.37729,7.92332 0.23748,19.8149 -1.1319,23.76994 l 6.37982,-0.4116 0.11934,6.79143 -7.49967,-0.0345"
     style="fill:#ff0000;fill-opacity:1;fill-rule:evenodd;stroke:#000000;stroke-width:0.15603298;stroke-linecap:butt;stroke-linejoin:miter;stroke-miterlimit:4;stroke-dasharray:none;stroke-opacity:1"
     id="Santiago" />
  <path
     inkscape:connector-curvature="0"
     d="m 72.966384,82.401474 -3.255582,-2.257305 -24.609281,25.645461 -0.402199,9.75902 9.996652,0.0826 0.33047,1.23924 3.635139,0.0826 5.617953,-2.80897 8.84001,-0.0826 23.380591,0 2.478506,0.9914 3.635147,-2.31327 2.23066,0 0.0103,-1.92021 2.68464,0.13096 5.17286,-2.88108 9.16709,0 7.33368,5.50025 4.97643,5.17286 6.48245,4.1252 12.83392,5.76218 0.0655,-1.70247 -7.26818,-7.79203 -1.44056,-14.66735 -1.44055,-3.01205 -8.83968,-15.976933 -3.53588,-9.101607 -1.24411,2.095336 -0.98219,0 -0.39287,-1.5715 -4.77999,2.357251 -3.01204,0.06545 -6.48246,8.446814 -2.4882,0.06545 -1.96438,-0.98219 -4.84546,3.404921 -3.99423,0 -0.13096,-0.982189 -2.488217,-0.13096 -0.205519,1.040489 -2.282692,-0.123774 -0.196436,-0.523833 -2.226295,-0.06545 -0.523835,0.785752 -2.226293,-0.13096 -0.720264,1.113146 -3.535881,-3.994234 -1.702459,-0.06545 -0.851231,-0.98219 -0.785751,1.047669 -5.303819,0 -2.291773,-2.422733 -0.06545,-2.357252 -2.357251,-0.06545 z"
     style="fill:#d45500;fill-opacity:1;fill-rule:evenodd;stroke:#000000;stroke-width:0.15603298;stroke-linecap:butt;stroke-linejoin:miter;stroke-miterlimit:4;stroke-dasharray:none;stroke-opacity:1"
     id="Renca" />
  <path
     inkscape:connector-curvature="0"
     d="m 153.80517,130.96707 -0.29934,-2.33725 -12.83391,-5.76216 -6.48245,-4.1252 -4.97642,-5.17287 -7.33369,-5.50025 -9.16709,0 -5.17285,2.88108 -2.68465,-0.13096 -0.0103,1.92021 4.87439,3.71776 -4.62054,24.82148 14.49553,1.47411 0.4375,12.22356 13.98737,-0.83904 0,-3.91022 -0.0818,-6.07183 11.81818,-0.68512 -0.85638,-11.13307 c 0.29822,-6.07616 5.71022,-1.44372 8.90646,-1.37023 z"
     style="fill:#ff8080;fill-opacity:1;fill-rule:evenodd;stroke:#000000;stroke-width:0.15603298;stroke-linecap:butt;stroke-linejoin:miter;stroke-miterlimit:4;stroke-dasharray:none;stroke-opacity:1"
     id="Quinta Normal" />
  <path
     inkscape:connector-curvature="0"
     d="m 188.74594,138.33202 -15.52623,-4.29695 1.40479,-16.09115 -3.1927,-0.12771 0.12774,-13.02616 -2.29875,0 -2.42643,-1.7879 0.25542,-4.214352 -1.53248,-1.660189 1.1749,-0.632527 -0.12626,-20.823827 -0.50482,-0.1262 0,-3.02892 0.63102,-0.126213 0.37862,-2.271694 18.22276,8.68071 28.12243,22.138212 -0.0776,4.32662 -7.24162,4.73996 -1.18501,3.02833 -6.45161,6.71495 -2.76499,0 -3.94997,2.89665 -0.79,5.26663 -3.02833,5.79328 0.92168,0 -0.1426,4.62844 z"
     style="fill:#c83737;fill-opacity:1;fill-rule:evenodd;stroke:#000000;stroke-width:0.15603298;stroke-linecap:butt;stroke-linejoin:miter;stroke-miterlimit:4;stroke-dasharray:none;stroke-opacity:1"
     id="Recoleta" />
  <path
     inkscape:connector-curvature="0"
     d="m 150.99861,98.276973 -7.57656,3.178957 1.44053,3.01205 1.44054,14.66735 7.2682,7.79202 -0.0655,1.70247 19.71387,5.40525 1.40479,-16.09115 -3.1927,-0.12771 0.12774,-13.02616 -2.29874,0 -2.42644,-1.7879 0.25541,-4.214352 -1.53247,-1.660189 -8.68412,-0.255419 -5.87454,1.404781 z"
     style="fill:#aa0000;fill-opacity:1;fill-rule:evenodd;stroke:#000000;stroke-width:0.15603298;stroke-linecap:butt;stroke-linejoin:miter;stroke-miterlimit:4;stroke-dasharray:none;stroke-opacity:1"
     id="Independencia" />
  <path
     inkscape:connector-curvature="0"
     d="m 58.838502,66.259721 -2.338996,1.968371 4.921856,5.698997 11.545022,8.474385 2.357253,0.06545 0.06545,2.357254 2.291773,2.42273 5.303818,0 0.785751,-1.047667 0.851231,0.982187 1.70246,0.06545 3.535879,3.994233 0.720264,-1.113146 2.226293,0.13096 0.523835,-0.785751 2.226295,0.06545 0.196437,0.523834 2.282693,0.123785 0.205519,-1.040489 2.488205,0.13096 0.13096,0.982187 3.99424,0 4.84547,-3.40492 1.96438,0.982188 2.4882,-0.06545 6.48246,-8.446814 3.01204,-0.06545 4.77999,-2.357253 0.39286,1.571501 0.9822,0 1.24411,-2.095333 -6.44239,-16.39406 0,-2.001166 11.09736,-0.09096 -4.18425,-11.825069 0,-4.82099 1.45539,-1.000583 -0.0909,-2.6379 2.09213,-0.636734 c 4.38237,-12.243933 4.81437,-5.912502 8.36853,-10.005828 0.189,-1.525431 -0.13459,-2.68472 -1.63733,-3.001749 l 0,-4.366179 0,-4.548103 -3.91138,0 -1.54637,-3.183674 c -0.14191,-1.370237 0.64878,-1.108385 1.45541,-0.818657 l 0.63674,2.274052 c -0.39704,-2.239852 2.26033,-5.6829473 -5.54871,-5.0029204 -1.79071,-1.5669816 -1.45852,-4.3470557 -6.27637,-4.1842547 l -2.27405,1.3644304 -3.18366,-0.2728861 -4.0933,-3.4565582 -6.64024,0.1819235 -1.54636,8.3685115 -20.28454,5.457723 17.00991,22.194746 -1.9102,0 0.091,2.274053 -8.368508,0 0.09096,-3.638484 -5.366762,0 0.09097,7.00408 -1.182513,-0.181925 c -1.097021,-0.600322 0.14976,0.518145 -4.184251,-2.455974 l 0.181919,-3.183675 c -2.02576,-2.153553 -4.927872,-1.093788 -7.640811,-0.727697 1.577182,1.122502 3.349382,2.488768 4.002332,2.455977 l -5.184844,-0.09096 c -0.09559,0.853145 -0.823034,1.355261 -3.092705,1.000583 l -3.638487,9.914867 -3.911365,0 -0.272884,8.277548 -6.367349,6.731193 0,0.909627 z"
     style="fill:#c87137;fill-opacity:1;fill-rule:evenodd;stroke:#000000;stroke-width:0.15603298;stroke-linecap:butt;stroke-linejoin:miter;stroke-miterlimit:4;stroke-dasharray:none;stroke-opacity:1"
     id="Quilicura" />
  <path
     inkscape:connector-curvature="0"
     d="m 165.55727,97.12761 1.17491,-0.632526 -0.12627,-20.823828 -0.50482,-0.1262 0,-3.02892 0.63103,-0.126213 0.37862,-2.271693 -25.87202,-11.358448 -5.53732,-0.868584 -11.09737,0.09096 0,2.001165 6.44237,16.394059 3.53589,9.101607 8.83969,15.976941 7.57657,-3.178967 5.87456,-1.404782 8.6841,0.25542 z"
     style="fill:#aa4400;fill-opacity:1;fill-rule:evenodd;stroke:#000000;stroke-width:0.15603298;stroke-linecap:butt;stroke-linejoin:miter;stroke-miterlimit:4;stroke-dasharray:none;stroke-opacity:1"
     id="Conchalí" />
  <path
     inkscape:connector-curvature="0"
     d="m 122.01354,252.31617 20.319,8.83434 -7.06748,20.02453 -2.94478,-1.17791 0,10.30673 -5.30061,10.8957 26.20856,11.19016 11.48467,2.35583 -11.77915,47.99998 4.41718,5.30061 -0.58896,0.88343 1.4724,1.76686 -3.82823,1.17792 8.83437,16.78526 -0.58896,7.65644 -2.94479,0 -1.17792,-6.47852 -2.94477,0.29448 -0.58896,-2.65031 -19.43556,1.76687 -1.17793,-3.53374 -1.47239,0.29448 1.17792,5.59509 3.8282,2.35582 2.35583,0 0.58896,1.17793 3.82823,0.29446 -0.58896,1.17793 -12.36809,3.53374 -4.12269,-0.29449 -10.60123,-5.88957 3.23927,-7.65644 -3.53374,-18.55211 -2.6503,-0.58896 -3.23927,-9.42332 1.76687,-4.41717 -3.23927,-0.58895 -2.06134,1.4724 -5.00613,-0.88345 0.88344,-5.00613 3.82821,-10.60121 -1.76687,-2.65031 -2.6503,0 -0.88343,-3.53374 -0.58896,-2.35584 -2.65031,-1.76687 2.35583,-5.88955 -4.417174,-4.1227 1.177916,-5.59509 1.766862,-2.06134 -0.588954,-3.82822 4.41718,-4.41718 1.47239,-20.319 6.18404,-10.60123 5.30061,3.23928 5.88957,-21.49692 z"
     style="fill:#44aa00;fill-opacity:1;fill-rule:evenodd;stroke:#000000;stroke-width:0.15603298;stroke-linecap:butt;stroke-linejoin:miter;stroke-miterlimit:4;stroke-dasharray:none;stroke-opacity:1"
     id="San Bernardo" />
  <path
     inkscape:connector-curvature="0"
     d="m 142.33254,261.15051 18.10028,7.50673 13.53609,2.12011 -9.25601,43.9682 -11.48467,-2.35583 -26.20856,-11.19016 5.30061,-10.8957 0,-10.30673 2.94478,1.17791 7.06748,-20.02453 z"
     style="fill:#55d400;fill-opacity:1;fill-rule:evenodd;stroke:#000000;stroke-width:0.15603298;stroke-linecap:butt;stroke-linejoin:miter;stroke-miterlimit:4;stroke-dasharray:none;stroke-opacity:1"
     id="El Bosque" />
  <path
     inkscape:connector-curvature="0"
     d="m 173.96891,270.77735 -13.53609,-2.12011 -18.10028,-7.50673 13.5339,-34.24312 26.57073,7.48318 -8.46826,36.38678 z"
     style="fill:#b3ff80;fill-opacity:1;fill-rule:evenodd;stroke:#000000;stroke-width:0.15603298;stroke-linecap:butt;stroke-linejoin:miter;stroke-miterlimit:4;stroke-dasharray:none;stroke-opacity:1"
     id="La Cisterna" />
  <path
     inkscape:connector-curvature="0"
     d="m 122.29148,242.28587 -0.27794,10.0303 20.319,8.83434 13.5339,-34.24312 -24.0555,-10.25482 -9.51946,25.6333 z"
     style="fill:#c8ab37;fill-opacity:1;fill-rule:evenodd;stroke:#000000;stroke-width:0.15603298;stroke-linecap:butt;stroke-linejoin:miter;stroke-miterlimit:4;stroke-dasharray:none;stroke-opacity:1"
     id="Lo Espejo" />
  <path
     inkscape:connector-curvature="0"
     d="m 155.1754,186.97503 15.99902,0.40464 -15.30798,39.52772 -24.0555,-10.25482 9.51947,-25.63333 -0.34404,-3.76339 4.7915,0.0839 -0.19406,2.37571 9.59159,0.34256 0,-3.083 z"
     style="fill:#d3bc5f;fill-opacity:1;fill-rule:evenodd;stroke:#000000;stroke-width:0.15603298;stroke-linecap:butt;stroke-linejoin:miter;stroke-miterlimit:4;stroke-dasharray:none;stroke-opacity:1"
     id="Pedro Aguirre Cerda" />
  <path
     inkscape:connector-curvature="0"
     d="m 155.86644,226.90739 15.30798,-39.52772 13.10245,0.28 5.30085,47.485 -4.299,0.0562 -29.41228,-8.29364 z"
     style="fill:#eeffaa;fill-opacity:1;fill-rule:evenodd;stroke:#000000;stroke-width:0.15603298;stroke-linecap:butt;stroke-linejoin:miter;stroke-miterlimit:4;stroke-dasharray:none;stroke-opacity:1"
     id="San Miguel" />
  <path
     inkscape:connector-curvature="0"
     d="m 189.57772,235.14467 -4.299,0.0562 -2.84155,-0.81048 -8.46826,36.38679 -1.73384,8.2342 23.72312,2.84728 -6.38047,-46.71414 z"
     style="fill:#aade87;fill-opacity:1;fill-rule:evenodd;stroke:#000000;stroke-width:0.15603298;stroke-linecap:butt;stroke-linejoin:miter;stroke-miterlimit:4;stroke-dasharray:none;stroke-opacity:1"
     id="San Ramón" />
  <path
     inkscape:connector-curvature="0"
     d="m 189.57772,235.14467 6.372,46.73108 3.70026,0.44097 14.20525,-3.5858 -2.62039,-10.89527 4.13744,0 -1.24122,-39.16785 -5.24078,0 -10.19447,5.88578 -9.11809,0.59109 z"
     style="fill:#00d4aa;fill-opacity:1;fill-rule:evenodd;stroke:#000000;stroke-width:0.15603298;stroke-linecap:butt;stroke-linejoin:miter;stroke-miterlimit:4;stroke-dasharray:none;stroke-opacity:1"
     id="La Granja" />
  <path
     inkscape:connector-curvature="0"
     d="m 189.57772,235.14467 -5.28502,-47.48452 16.27142,-7.53623 1.80292,4.9941 2.16353,10.14148 3.65091,9.19494 3.3805,18.93073 2.43396,2.43397 0.13512,2.84866 -5.24078,0 -10.19447,5.88578 -9.11809,0.59109 z"
     style="fill:#5fd38d;fill-opacity:1;fill-rule:evenodd;stroke:#000000;stroke-width:0.15603298;stroke-linecap:butt;stroke-linejoin:miter;stroke-miterlimit:4;stroke-dasharray:none;stroke-opacity:1"
     id="San Joaquín" />
  <path
     inkscape:connector-curvature="0"
     d="m 213.85523,278.73092 -14.20525,3.5858 -27.40691,-3.30044 -7.52933,35.7277 -6.34404,25.86642 25.29176,2.32118 -1.95701,13.85784 2.38015,0 -0.79339,6.45289 16.50249,0 1.85123,-9.30909 0,-17.08427 19.35867,-3.7025 -0.6876,-5.97686 -0.47604,-11.58347 -2.64463,-3.59668 -1.11074,-15.86776 -1.00495,0 -1.58678,-10.20825 2.48595,0 -2.12358,-7.18251 z"
     style="fill:#89a02c;fill-opacity:1;fill-rule:evenodd;stroke:#000000;stroke-width:0.15603298;stroke-linecap:butt;stroke-linejoin:miter;stroke-miterlimit:4;stroke-dasharray:none;stroke-opacity:1"
     id="La Pintana" />
  <path
     inkscape:connector-curvature="0"
     d="m 210.78064,107.04117 -4.64389,2.96257 -1.18501,3.02832 -6.45161,6.71495 -2.76498,0 -3.94998,2.89666 -0.79,5.26662 -3.02832,5.79329 0.92167,0 -0.14258,4.62844 4.98721,17.6106 12.36446,-3.92786 0.27344,1.50393 2.18756,0.13673 6.97281,-3.6915 10.80104,-0.95705 4.922,3.41805 10.03332,-16.97457 -2.37688,-2.57668 -17.09025,-15.31288 -5.87905,-2.18754 2.87116,-8.20333 -8.03212,-0.12875 z"
     style="fill:#de87cd;fill-opacity:1;fill-rule:evenodd;stroke:#000000;stroke-width:0.15603298;stroke-linecap:butt;stroke-linejoin:miter;stroke-miterlimit:4;stroke-dasharray:none;stroke-opacity:1"
     id="Providencia" />
  <path
     inkscape:connector-curvature="0"
     d="m 193.73315,155.94262 12.36446,-3.92786 0.27344,1.50393 2.18756,0.13673 6.97281,-3.6915 10.80104,-0.95705 4.922,3.41805 10.00175,-16.97457 8.39263,5.34267 2.90272,15.1446 -1.13586,9.46538 -3.91233,12.24188 -8.83436,5.42682 -19.81418,-0.12614 -16.53286,2.14549 -1.75474,-4.97047 -6.83408,-24.17789 z"
     style="fill:#ff80e5;fill-opacity:1;fill-rule:evenodd;stroke:#000000;stroke-width:0.15603298;stroke-linecap:butt;stroke-linejoin:miter;stroke-miterlimit:4;stroke-dasharray:none;stroke-opacity:1"
     id="Ñuñoa" />
  <path
     inkscape:connector-curvature="0"
     d="m 241.25621,135.45035 8.39263,5.34267 2.90272,15.1446 -1.13586,9.46538 8.79832,3.72605 15.01838,0.51083 8.58194,-0.40867 7.76461,2.86066 1.83898,-7.15162 41.78586,2.55414 0.20435,-2.65629 -2.55416,-4.80181 -3.78014,-2.75849 -1.12381,-1.53248 -2.75849,-2.45199 0.20434,-5.1083 -11.95341,-10.52308 -8.37762,-1.839 -6.64078,-3.16714 -13.99675,1.94117 -0.51082,-4.90398 -19.61586,2.55415 -25.43933,0.51082 2.3949,2.69238 z"
     style="fill:#8d5fd3;fill-opacity:1;fill-rule:evenodd;stroke:#000000;stroke-width:0.15603298;stroke-linecap:butt;stroke-linejoin:miter;stroke-miterlimit:4;stroke-dasharray:none;stroke-opacity:1"
     id="La Reina" />
  <path
     inkscape:connector-curvature="0"
     d="m 211.56198,223.38517 -3.3805,-18.93073 -3.65091,-9.19494 -2.2086,-10.16851 16.53286,-2.14549 19.81418,0.12612 8.83436,-5.42681 -3.8102,23.48616 -8.35507,16.40816 0,6.94576 -23.77612,-1.09979 z"
     style="fill:#87cdde;fill-opacity:1;fill-rule:evenodd;stroke:#000000;stroke-width:0.15603298;stroke-linecap:butt;stroke-linejoin:miter;stroke-miterlimit:4;stroke-dasharray:none;stroke-opacity:1"
     id="Macul" />
  <path
     inkscape:connector-curvature="0"
     d="m 304.60328,349.89507 c -2.74224,0.63494 -5.01367,-0.53768 -7.37479,-1.71282 -3.83802,-3.5536 -6.20508,2.91336 -9.1151,4.38523 -3.83474,-0.9564 -7.85247,-3.32308 -12.04335,-2.10396 -3.05754,2.31321 -6.32786,5.58513 -10.63462,3.56899 -3.1623,-3.03454 -7.04291,1.81437 -6.81626,5.08923 -3.03356,0.43207 -7.10806,-0.68022 -9.29658,2.91475 -3.66938,11.16824 -2.77332,7.42842 -7.47934,6.92222 -3.60408,0.63412 -4.27563,7.86792 -9.0776,6.17425 -0.95151,-3.81561 -2.88514,-0.78026 -5.39475,-0.4132 -3.97336,-1.23958 -6.90363,3.08247 -11.07275,1.57393 -3.61442,1.64391 -7.26627,1.91711 -10.99363,0.0811 -4.01808,-1.1775 -9.62501,-0.67723 -10.99716,4.06267 l 4.98692,-7.64757 0.49943,-9.54753 1.85123,-9.30909 0,-17.08427 19.35867,-3.70249 -0.6876,-5.97686 -0.47604,-11.58346 -2.64463,-3.59669 -1.11074,-15.86777 10.18298,-3.59924 6.89576,3.03412 8.82654,-1.10332 -0.27582,-4.96493 27.03134,-5.24078 -10.48154,-15.7223 14.89483,0.27583 5.5166,5.24077 3.86161,-4.13746 1.37915,3.30996 4.13745,-0.55165 3.58579,-1.37915 1.65497,0.27583 0.27584,18.75642 -7.99906,-3.03411 -1.65499,13.51567 -2.20664,-0.27583 -0.27584,12.13651 4.13747,5.24077 1.1033,6.89576 7.44743,3.58578 3.58578,-4.68912 29.78962,-1.65496 -0.27581,4.6891 c -0.88587,0 -3.62171,0.47983 -2.7583,2.20664 0.53475,1.06952 0.6747,1.99033 0.27583,3.58578 -0.34494,1.37973 -0.47983,3.26685 -1.93081,4.13745 -1.45998,0.87599 -1.96412,1.20035 -3.58579,0.55167 -0.99945,-0.39978 -2.29893,-1.56167 -2.75832,0.27583 -0.4653,1.86126 0.55168,1.83278 0.55168,3.86161 0,2.18158 -1.25143,1.9716 -1.65498,3.5858 -0.31188,1.24748 -1.42651,2.48245 -3.03414,2.48245 -1.26506,0 -3.04656,-0.0497 -3.30995,-1.1033 -0.0589,-0.2356 -0.50196,-3.52068 -0.82749,-3.58578 -0.76482,-0.15297 -3.71141,-0.25125 -2.75832,1.65497 0.50505,1.01008 0.81847,2.22473 0,3.86161 -0.27581,0.55167 -0.55164,1.10332 -0.82748,1.65499 z"
     style="fill:#0000ff;fill-opacity:1;fill-rule:evenodd;stroke:#000000;stroke-width:0.15603298;stroke-linecap:butt;stroke-linejoin:miter;stroke-miterlimit:4;stroke-dasharray:none;stroke-opacity:1"
     id="Puente Alto" />
  <path
     inkscape:connector-curvature="0"
     d="m 246.40316,381.89136 c 0.27786,-3.61327 -4.37112,3.07966 -6.30724,3.12474 -3.85709,1.0583 -7.88814,1.75097 -11.55821,3.34848 -1.96197,2.39283 -3.91626,5.52121 -6.70081,4.87559 -3.22797,2.90202 -7.72717,1.13561 -11.51145,1.22945 -2.2887,2.34413 -8.06347,4.12727 -9.1584,-0.16593 0.48874,-2.65499 7.47498,-6.78843 1.15299,-6.69262 -4.29821,0.25188 -8.11178,-2.83168 -8.01269,-7.17366 1.37215,-4.7399 6.97908,-5.24018 10.99716,-4.06267 3.72736,1.83606 7.37921,1.56286 10.99363,-0.0811 4.16912,1.50854 7.09939,-2.81351 11.07275,-1.57393 2.50961,-0.36707 4.44324,-3.40242 5.39475,0.4132 4.80197,1.69367 5.47352,-5.54013 9.0776,-6.17425 4.70602,0.5062 3.80996,4.24602 7.47934,-6.92222 2.18852,-3.59497 6.26302,-2.48269 9.29658,-2.91477 -0.22665,-3.27484 3.65396,-8.12376 6.81626,-5.08921 4.30676,2.01614 7.57708,-1.25578 10.63462,-3.56899 4.19088,-1.21913 8.20861,1.14755 12.04335,2.10395 2.91002,-1.47187 5.27708,-7.93882 9.1151,-4.38522 2.36112,1.17514 4.63255,2.34775 7.37479,1.71281 l 0.55167,-0.55166 1.10331,2.20664 -6.61992,0.27583 -8.27489,2.7583 0,6.06827 2.75831,2.48246 -9.65406,1.9308 -3.30995,3.30997 0,-3.86162 -9.92989,1.65497 0.82749,-3.58578 -7.99906,3.86163 0.55165,9.65404 -7.72324,3.30997 -0.55166,-6.3441 -6.06826,2.75829 3.03413,3.86164 -6.89575,2.20665 z m 76.40491,-45.23614 c -1.45998,0.87599 -1.96412,1.20033 -3.58579,0.55167 -0.99945,-0.39978 -2.29893,-1.56167 -2.75832,0.27583 -0.4653,1.86125 0.55168,1.83278 0.55168,3.86161 0.1411,-0.076 0.30999,-0.11466 0.42331,-0.22793 0.26772,-0.26772 0.45096,-0.67622 0.90147,-0.90146 0.33417,-0.1671 0.75956,-0.45075 1.35218,-0.45075 0.57093,0 1.14187,0 1.71279,0 0.46958,0 0.93184,0.0149 1.35219,-0.0902 0.36657,-0.0916 0.86899,-0.32446 0.99161,-0.63103 0.18736,-0.46833 0.33225,-0.65422 0.1803,-1.26204 -0.16601,-0.66409 -0.18531,-0.60117 -0.72117,-0.90146 -0.13342,-0.0747 -0.26684,-0.14954 -0.40025,-0.2243 z m 1.93081,-4.13745 c -1.19745,1.71567 3.1516,-2.53593 4.09922,-3.07727 1.43615,-0.69894 2.69113,-1.72743 3.92045,-2.72671 1.39733,-1.05652 2.36907,-2.67507 3.90863,-3.55456 1.15048,-1.15071 2.88084,-0.20512 4.14793,0.23764 1.31504,0.7217 3.27477,0.69064 3.74924,-1.03975 0.86222,-1.16773 1.16999,-2.5794 1.2015,-3.99919 0.62831,-2.19822 1.30223,1.22409 2.25025,1.54119 1.30886,1.18344 3.01151,1.17666 4.27117,-0.052 1.22247,-1.4636 3.235,-0.73184 4.86402,-0.85 1.65713,0.0191 3.44929,0.36264 4.93481,-0.59639 1.04127,-1.01197 1.30065,-3.51005 -0.0784,-4.42744 -1.31144,-0.0467 -2.56563,-0.5032 -3.90122,-0.31106 -1.54526,-0.32069 -3.08078,0.63845 -4.03327,1.80952 -0.88308,1.03534 -2.55635,0.88568 -3.65874,0.36034 -1.37069,-0.60697 -2.45729,-1.74639 -3.90297,-2.25731 -1.15237,-0.47046 -2.91221,-0.88555 -3.87569,0.085 -1.21218,1.34486 -0.74041,2.82145 -0.98356,4.19886 -0.51244,1.1364 -0.45217,2.22512 -2.12048,1.44946 -0.91315,-0.88116 -2.24753,-2.0844 -3.41903,-0.85907 -1.77995,1.96228 -3.71407,3.78771 -5.58847,5.65879 -1.36201,0.80932 -3.22759,0.43017 -3.30296,2.61755 -0.88586,0 -3.62171,0.47982 -2.75829,2.20664 0.53475,1.06953 0.67469,1.99033 0.27582,3.5858 z m 53.27945,-28.23069 -0.58184,-0.6924 c -0.93928,-0.92073 -1.73778,-1.96897 -2.54808,-2.99915 -0.66167,-0.71658 -1.67105,-1.08293 -2.63601,-0.91373 -0.83465,0.0169 -1.85485,0.15864 -2.28169,0.98253 -0.85817,1.12975 -1.16182,2.54983 -1.8074,3.78705 -0.64594,1.03326 -1.81243,1.98891 -3.10748,1.69286 -1.00873,-0.13872 -1.78976,-0.82432 -2.63649,-1.31652 -0.8602,-0.39997 -1.83928,-0.37577 -2.76233,-0.28458 -0.74164,0.60157 0.26587,1.25741 0.71713,1.65592 l -0.18911,1.8879 c 2.23674,-1.71365 4.25238,2.23272 6.78268,1.26379 2.69436,-0.0511 3.8192,-3.09673 5.91752,-4.23898 1.81768,1.17218 3.2371,-0.85063 5.1331,-0.82469 z"
     style="fill:#3771c8;fill-opacity:1;fill-rule:evenodd;stroke:#000000;stroke-width:0.15603298;stroke-linecap:butt;stroke-linejoin:miter;stroke-miterlimit:4;stroke-dasharray:none;stroke-opacity:1"
     id="Pirque" />
  <path
     inkscape:connector-curvature="0"
     d="m 360.18503,308.08696 0.18911,-1.8879 c -0.45126,-0.39851 -1.45877,-1.05435 -0.71713,-1.65592 0.92305,-0.0912 1.90213,-0.11546 2.76233,0.28458 0.84673,0.4922 1.62776,1.1778 2.63649,1.31652 1.29505,0.29605 2.46154,-0.6596 3.10748,-1.69286 0.64558,-1.23722 0.94923,-2.6573 1.8074,-3.78705 0.42684,-0.82389 1.44704,-0.96559 2.28169,-0.98253 0.96496,-0.1692 1.97434,0.19715 2.63601,0.91373 0.8103,1.03018 1.6088,2.07842 2.54808,2.99915 l 0.58184,0.6924 c 2.24024,1.59588 4.68191,0.66349 7.0036,-0.15697 2.28306,0.46738 4.35969,-0.64828 6.42168,-1.42782 2.28241,-0.25684 4.84954,-0.52028 6.94494,0.60215 2.08163,2.68284 1.97128,-3.03686 0.10868,-3.01166 -2.42727,-1.43314 -4.70752,1.04218 -7.19346,0.81157 -0.76301,-1.01351 -2.69643,-1.14828 -4.20638,-1.92762 -2.10201,0.55763 -2.25598,-3.04869 -3.64171,-2.4021 -0.96157,2.65379 -4.70528,2.00345 -5.30911,-0.51392 -1.94012,-1.14717 -0.4272,-5.78806 -3.16465,-5.37588 -0.58355,1.4043 -1.84299,2.74262 -1.91978,4.22198 2.54823,2.58891 -2.36738,2.33795 -3.925,1.9733 -2.21527,1.14634 -4.96913,0.93782 -5.67064,-1.91465 -1.49147,0.55938 -1.8366,3.29026 -3.69569,3.89282 1.25255,1.29195 1.39866,3.87749 -0.98555,5.07183 -0.84322,1.08639 -1.17724,5.58717 -3.23667,3.19479 -0.8053,-2.45935 -2.00512,0.15293 -1.46282,1.40861 -0.94268,2.69604 -4.60032,2.84197 -4.74127,-0.40517 -0.84074,1.31361 -2.68949,4.71991 -4.39151,1.87013 -1.00841,-3.2776 -4.02487,2.88029 -5.75869,-0.1192 -3.3328,-1.71839 -5.32202,2.28276 -5.57485,5.02736 -0.25281,2.7446 -1.2058,7.14145 -0.26549,6.20592 0.94034,-0.93552 1.86886,-1.88246 2.75884,-2.86359 1.17148,-1.22534 2.50587,-0.0222 3.41901,0.85906 1.66831,0.77565 1.60806,-0.31305 2.12048,-1.44945 0.24316,-1.37743 -0.22861,-2.854 0.98358,-4.19887 0.96347,-0.97047 2.7233,-0.55538 3.87567,-0.085 1.44568,0.51092 2.5323,1.65035 3.90297,2.25732 1.10239,0.52533 2.77566,0.67499 3.65875,-0.36037 0.95248,-1.17105 2.48802,-2.13018 4.03327,-1.8095 1.33558,-0.19214 2.58977,0.26427 3.90121,0.31107 l 0.0795,-1.36541 c -0.41381,-1.41722 -3.56279,-2.88977 -1.90211,-4.52099 z"
     style="fill:#0044aa;fill-opacity:1;fill-rule:evenodd;stroke:#000000;stroke-width:0.15603298;stroke-linecap:butt;stroke-linejoin:miter;stroke-miterlimit:4;stroke-dasharray:none;stroke-opacity:1"
     id="San José de Maipo" />
  <path
     inkscape:connector-curvature="0"
     d="m 211.56198,223.38517 2.43396,2.43397 0.13512,2.84866 1.24122,39.16785 -4.13744,0 2.62039,10.89527 2.12358,7.18251 -2.48595,0 1.58678,10.20825 1.00495,0 10.18298,-3.59924 6.89576,3.03412 8.82654,-1.10332 -0.27582,-4.96493 27.03134,-5.24078 -10.48154,-15.7223 14.89483,0.27582 5.5166,5.24078 3.70065,-3.939 4.31227,-3.6812 -2.41908,-6.83653 -5.87772,-4.47052 0.40852,-1.52456 6.3106,0 -0.42069,-8.20382 18.72153,1.68284 -0.31553,-7.67794 -10.62291,-0.84141 -0.21033,-11.4643 3.05013,-3.6812 -4.73297,0 -2.62943,2.62942 -3.57601,1.15696 -19.87849,-0.42072 -29.10776,-2.2876 -23.82608,-1.09708 z"
     style="fill:#00aad4;fill-opacity:1;fill-rule:evenodd;stroke:#000000;stroke-width:0.15603298;stroke-linecap:butt;stroke-linejoin:miter;stroke-miterlimit:4;stroke-dasharray:none;stroke-opacity:1"
     id="La Florida" />
  <path
     inkscape:connector-curvature="0"
     d="m 335.20379,167.49439 -41.78586,-2.55414 -1.83898,7.15162 -7.76461,-2.86066 -8.58194,0.40867 -15.01838,-0.51083 -8.79832,-3.72605 -3.91233,12.24188 -3.8102,23.48614 -8.35507,16.40816 0.0499,6.94307 29.10776,2.2876 19.87847,0.42072 3.57602,-1.15696 2.62942,-2.62942 4.73298,0 1.58936,-2.63776 1.87957,0.20883 8.98007,-7.93588 8.56241,-0.20885 3.13259,-2.7149 5.22099,-0.20885 0,-2.71491 9.39776,4.38561 5.63866,0.62653 8.5624,-7.30937 6.89169,0 3.34143,-2.71491 3.13258,-0.41768 8.56242,3.75911 5.42981,-0.20882 7.30937,-3.96797 4.80332,0.20884 -0.20884,-3.96794 -1.46188,-3.55027 -7.10053,-0.83535 -2.29724,-1.87954 -3.55027,-0.20886 -5.01213,-6.26518 -1.87955,0 -2.0884,-1.87954 -10.85964,-0.41768 -5.01214,-3.55026 -0.41768,-2.92375 -4.59446,-5.01215 -8.06059,-3.5683 z"
     style="fill:#5599ff;fill-opacity:1;fill-rule:evenodd;stroke:#000000;stroke-width:0.15603298;stroke-linecap:butt;stroke-linejoin:miter;stroke-miterlimit:4;stroke-dasharray:none;stroke-opacity:1"
     id="Peñalolén" />
  <path
     inkscape:connector-curvature="0"
     d="m 386.07643,194.035 -7.10052,-0.83535 -2.29725,-1.87954 -3.55026,-0.20886 -5.01213,-6.26518 -1.87956,0 -2.08839,-1.87954 -10.85964,-0.41768 -5.01214,-3.55026 -0.41767,-2.92375 -4.59447,-5.01215 -8.06061,-3.5683 0.20435,-2.65629 -2.55416,-4.80181 -3.78014,-2.75849 -1.12381,-1.53248 -2.75849,-2.45199 0.20434,-5.1083 -11.95341,-10.52308 -8.37762,-1.839 -6.64078,-3.16714 -13.99675,1.94117 -0.51082,-4.90398 -19.61586,2.55415 -25.41454,0.56867 -17.06545,-15.25503 -5.87905,-2.18754 2.87116,-8.20333 66.96359,-28.647013 6.6394,-8.114816 15.49193,-7.377109 8.6681,-0.922141 5.71726,-3.688553 3.31969,0.184427 4.05742,-3.504126 8.85253,1.290993 6.45496,0 0,5.348403 -4.24185,2.950849 -1.84426,5.163974 0,2.0287 4.42626,5.532837 1.47542,3.135265 -0.36886,4.057411 2.21315,1.106562 1.10656,-0.184423 7.56154,4.79512 12.90993,2.581988 2.21314,3.319696 -0.36886,16.967346 1.10656,0.92214 0,3.68855 9.59024,6.6394 8.48369,1.10657 3.50411,13.83208 -0.92214,4.42626 3.68855,7.19269 0.92215,13.64763 -5.53283,4.6107 -1.84428,4.97955 2.58198,3.68855 -0.7377,10.14351 -1.65984,0 -3.16387,5.96206 z"
     style="fill:#aa00d4;fill-opacity:1;fill-rule:evenodd;stroke:#000000;stroke-width:0.15603298;stroke-linecap:butt;stroke-linejoin:miter;stroke-miterlimit:4;stroke-dasharray:none;stroke-opacity:1"
     id="Las Condes" />
  <path
     inkscape:connector-curvature="0"
     d="m 213.6982,93.264788 c -0.51686,2.499321 0.0864,5.164488 -0.24223,7.672372 l -0.0776,4.32662 -2.59773,1.77739 8.03212,0.12874 66.96359,-28.647007 6.6394,-8.114815 10.01766,-4.842422 -2.62302,-3.06711 -19.70039,1.374448 -5.95592,-4.123339 -7.48309,-7.177659 -4.88693,-2.596175 -5.80321,0 -0.91628,-1.069012 -2.13805,-0.305432 -1.37443,-2.138026 -2.74889,0.305431 -2.13803,1.679878 -2.40999,-4.746124 -4.7501,-2.576301 -1.67987,3.665187 -2.13803,1.221729 -6.10864,0.458149 -4.42876,5.039633 -3.81791,3.970619 3.51248,2.901608 -0.61088,8.857535 -2.13802,1.985307 0.15273,5.345067 0.13131,0.194208 -3.27231,1.487415 -0.14875,2.974831 1.63617,2.528608 -0.14874,3.867279 -3.5698,2.97483 -3.17792,4.666533 z"
     style="fill:#a02c89;fill-opacity:1;fill-rule:evenodd;stroke:#000000;stroke-width:0.15603298;stroke-linecap:butt;stroke-linejoin:miter;stroke-miterlimit:4;stroke-dasharray:none;stroke-opacity:1"
     id="Vitacura" />
  <path
     inkscape:connector-curvature="0"
     d="m 246.66517,48.448674 2.13803,-1.679876 2.74888,-0.305433 1.37444,2.138025 2.13805,0.305432 0.91628,1.069013 5.80321,0 4.88692,2.596176 7.48309,7.177658 5.95593,4.12334 19.70039,-1.374449 2.62302,3.067109 5.47427,-2.534687 8.6681,-0.922141 5.71726,-3.688553 3.31969,0.184427 4.05742,-3.504126 8.85253,1.290993 6.45496,0 0.20863,0.143536 4.44797,-0.855376 1.02646,2.223981 4.10579,-0.684303 -0.17107,2.908284 1.3686,2.052905 9.58022,-8.382698 0,-1.710754 4.61905,-2.908283 0.17108,-5.132265 14.71248,-2.223978 3.25044,-2.395056 4.61904,-9.409151 -33.01758,-20.5290556 -2.39505,-0.3421508 -4.96119,4.2768864 -6.15872,-6.8430182 -21.21334,5.6454902 -16.93649,-6.3297923 -9.92235,-5.81656499 -18.3051,1.88182969 0,2.0529057 -5.47441,4.6190375 -3.07936,-2.3950564 1.53969,-2.5661319 -3.76368,-0.6843022 -0.68428,2.3950566 -3.76367,-1.026453 -3.07936,1.3686036 -0.34215,2.7372078 2.73721,4.2768849 7.6984,5.987643 -2.56615,0.855377 0.51325,3.421508 -3.07936,1.881831 -2.56614,-6.158716 -2.0529,0.171074 -1.71076,1.710756 -5.47441,2.737207 -0.34216,4.961188 2.05291,2.566133 -7.18516,4.105809 2.22398,3.592584 -5.30335,4.619039 0.36052,5.25744 z"
     style="fill:#8800aa;fill-opacity:1;fill-rule:evenodd;stroke:#000000;stroke-width:0.15603298;stroke-linecap:butt;stroke-linejoin:miter;stroke-miterlimit:4;stroke-dasharray:none;stroke-opacity:1"
     id="Lo Barnechea" />
  <path
     inkscape:connector-curvature="0"
     d="m 131.51719,41.245146 0,4.82099 4.18427,11.825068 5.53731,0.868585 25.87201,11.358447 18.22277,8.680709 28.12242,22.138215 c 0.32864,-2.507884 -0.27463,-5.173051 0.24223,-7.672372 l 3.17792,-4.666535 3.56978,-2.97483 0.14875,-3.867279 0.29749,0.495803 -4.75973,-4.759732 -2.18155,0.396644 -3.17315,-2.578187 5.55303,0 0.19831,-2.974831 -7.1396,-0.793288 0.39666,-1.586574 4.75971,-4.958058 -5.35468,-0.594961 -0.59497,1.784892 -2.37986,0 -0.39666,0.991613 -2.18153,-0.396642 -0.79329,3.173156 -10.31276,-4.363089 1.38827,-10.709397 -2.97483,-3.768121 -3.5698,-0.198321 -4.16478,2.578187 -2.97482,6.544629 -3.17317,-0.396644 -1.58657,3.569795 -5.55302,-2.578183 1.7849,-4.363087 -3.5698,-0.198322 2.7765,-7.734564 -1.38824,-2.181542 -5.55303,0.198321 0,-2.974832 -6.54461,-1.586576 2.37985,-7.932885 -2.97482,-2.77651 0.59497,-1.586577 -4.75974,-2.379866 -0.59497,2.379866 -2.7765,0 -0.59498,-0.991611 -1.58657,0 0.59496,1.983222 -3.37147,3.371476 -3.17314,0 0.39664,1.983221 -2.37988,2.379865 -2.7765,0 -1.38825,3.173155 -3.50148,-0.152443 z"
     style="fill:#ff5599;fill-opacity:1;fill-rule:evenodd;stroke:#000000;stroke-width:0.15603298;stroke-linecap:butt;stroke-linejoin:miter;stroke-miterlimit:4;stroke-dasharray:none;stroke-opacity:1"
     id="Huechuraba" />
  <text
     sodipodi:linespacing="100%"
     x="124.19749"
     y="173.84966"
     style="font-style:normal;font-variant:normal;font-weight:normal;font-stretch:normal;font-size:7.80164957px;line-height:100%;font-family:Calibri;text-align:center;writing-mode:lr-tb;text-anchor:middle;fill:#000000;fill-opacity:1;stroke:none;stroke-width:1px;stroke-linecap:butt;stroke-linejoin:miter;stroke-opacity:1"
     id="text1953"
     xml:space="preserve"><tspan
       x="124.19749"
       y="173.84966"
       id="tspan1955">Estación</tspan><tspan
       x="124.19749"
       y="181.65129"
       id="tspan1957">Central</tspan></text>
  <text
     sodipodi:linespacing="100%"
     x="171.33968"
     y="162.53651"
     style="font-style:normal;font-variant:normal;font-weight:normal;font-stretch:normal;font-size:7.80164957px;line-height:100%;font-family:Calibri;text-align:center;writing-mode:lr-tb;text-anchor:middle;fill:#000000;fill-opacity:1;stroke:none;stroke-width:1px;stroke-linecap:butt;stroke-linejoin:miter;stroke-opacity:1"
     id="text1976"
     xml:space="preserve"><tspan
       x="171.33968"
       y="162.53651"
       id="tspan1978">Santiago</tspan></text>
  <text
     sodipodi:linespacing="100%"
     x="68.682381"
     y="238.77303"
     style="font-style:normal;font-variant:normal;font-weight:normal;font-stretch:normal;font-size:7.80164957px;line-height:100%;font-family:Calibri;text-align:center;writing-mode:lr-tb;text-anchor:middle;fill:#000000;fill-opacity:1;stroke:none;stroke-width:1px;stroke-linecap:butt;stroke-linejoin:miter;stroke-opacity:1"
     id="text1992"
     xml:space="preserve"><tspan
       x="68.682381"
       y="238.77303"
       id="tspan1994">Maipú</tspan></text>
  <text
     sodipodi:linespacing="100%"
     x="103.23013"
     y="156.61229"
     style="font-style:normal;font-variant:normal;font-weight:normal;font-stretch:normal;font-size:7.80164957px;line-height:100%;font-family:Calibri;text-align:center;writing-mode:lr-tb;text-anchor:middle;fill:#000000;fill-opacity:1;stroke:none;stroke-width:1px;stroke-linecap:butt;stroke-linejoin:miter;stroke-opacity:1"
     id="text1996"
     xml:space="preserve"><tspan
       x="103.23013"
       y="156.61229"
       id="tspan1998">Lo Prado</tspan></text>
  <text
     sodipodi:linespacing="100%"
     x="48.904438"
     y="144.75873"
     style="font-style:normal;font-variant:normal;font-weight:normal;font-stretch:normal;font-size:7.80164957px;line-height:100%;font-family:Calibri;text-align:center;writing-mode:lr-tb;text-anchor:middle;fill:#000000;fill-opacity:1;stroke:none;stroke-width:1px;stroke-linecap:butt;stroke-linejoin:miter;stroke-opacity:1"
     id="text2000"
     xml:space="preserve"><tspan
       x="48.904438"
       y="144.75873"
       id="tspan2002">Pudahuel</tspan></text>
  <text
     sodipodi:linespacing="100%"
     x="77.250175"
     y="126.06123"
     style="font-style:normal;font-variant:normal;font-weight:normal;font-stretch:normal;font-size:7.80164957px;line-height:100%;font-family:Calibri;text-align:center;writing-mode:lr-tb;text-anchor:middle;fill:#000000;fill-opacity:1;stroke:none;stroke-width:1px;stroke-linecap:butt;stroke-linejoin:miter;stroke-opacity:1"
     id="text2004"
     xml:space="preserve"><tspan
       x="77.250175"
       y="126.06123"
       id="tspan2006">Cerro Navia</tspan></text>
  <text
     sodipodi:linespacing="100%"
     x="113.34439"
     y="217.68259"
     style="font-style:normal;font-variant:normal;font-weight:normal;font-stretch:normal;font-size:7.80164957px;line-height:100%;font-family:Calibri;text-align:center;writing-mode:lr-tb;text-anchor:middle;fill:#000000;fill-opacity:1;stroke:none;stroke-width:1px;stroke-linecap:butt;stroke-linejoin:miter;stroke-opacity:1"
     id="text2008"
     xml:space="preserve"><tspan
       x="113.34439"
       y="217.68259"
       id="tspan2010">Cerrillos</tspan></text>
  <text
     sodipodi:linespacing="100%"
     x="21.844786"
     y="298.40567"
     style="font-style:normal;font-variant:normal;font-weight:normal;font-stretch:normal;font-size:7.80164957px;line-height:100%;font-family:Calibri;text-align:center;writing-mode:lr-tb;text-anchor:middle;fill:#000000;fill-opacity:1;stroke:none;stroke-width:1px;stroke-linecap:butt;stroke-linejoin:miter;stroke-opacity:1"
     id="text2012"
     xml:space="preserve"><tspan
       x="21.844786"
       y="298.40567"
       id="tspan2014">Padre</tspan><tspan
       x="21.844786"
       y="306.20731"
       id="tspan2016">Hurtado</tspan></text>
  <text
     sodipodi:linespacing="100%"
     x="126.16987"
     y="130.11348"
     style="font-style:normal;font-variant:normal;font-weight:normal;font-stretch:normal;font-size:7.80164957px;line-height:100%;font-family:Calibri;text-align:center;writing-mode:lr-tb;text-anchor:middle;fill:#000000;fill-opacity:1;stroke:none;stroke-width:1px;stroke-linecap:butt;stroke-linejoin:miter;stroke-opacity:1"
     id="text2018"
     xml:space="preserve"><tspan
       x="126.16987"
       y="130.11348"
       id="tspan2020">Quinta</tspan><tspan
       x="126.16987"
       y="137.91515"
       id="tspan2022">Normal</tspan></text>
  <text
     sodipodi:linespacing="100%"
     x="99.091515"
     y="103.37177"
     style="font-style:normal;font-variant:normal;font-weight:normal;font-stretch:normal;font-size:7.80164957px;line-height:100%;font-family:Calibri;text-align:center;writing-mode:lr-tb;text-anchor:middle;fill:#000000;fill-opacity:1;stroke:none;stroke-width:1px;stroke-linecap:butt;stroke-linejoin:miter;stroke-opacity:1"
     id="text2024"
     xml:space="preserve"><tspan
       x="99.091515"
       y="103.37177"
       id="tspan2026">Renca</tspan></text>
  <text
     sodipodi:linespacing="100%"
     x="100.22858"
     y="51.021404"
     style="font-style:normal;font-variant:normal;font-weight:normal;font-stretch:normal;font-size:7.80164957px;line-height:100%;font-family:Calibri;text-align:center;writing-mode:lr-tb;text-anchor:middle;fill:#000000;fill-opacity:1;stroke:none;stroke-width:1px;stroke-linecap:butt;stroke-linejoin:miter;stroke-opacity:1"
     id="text2028"
     xml:space="preserve"><tspan
       x="100.22858"
       y="51.021404"
       id="tspan2030">Quilicura</tspan></text>
  <text
     sodipodi:linespacing="100%"
     x="150.32956"
     y="81.728462"
     style="font-style:normal;font-variant:normal;font-weight:normal;font-stretch:normal;font-size:7.80164957px;line-height:100%;font-family:Calibri;text-align:center;writing-mode:lr-tb;text-anchor:middle;fill:#000000;fill-opacity:1;stroke:none;stroke-width:1px;stroke-linecap:butt;stroke-linejoin:miter;stroke-opacity:1"
     id="text2032"
     xml:space="preserve"><tspan
       x="150.32956"
       y="81.728462"
       id="tspan2034">Conchalí</tspan></text>
  <text
     sodipodi:linespacing="80.000001%"
     x="159.21846"
     y="114.85976"
     style="font-style:normal;font-variant:normal;font-weight:normal;font-stretch:normal;font-size:7.80164957px;line-height:80.00000119%;font-family:Calibri;text-align:center;writing-mode:lr-tb;text-anchor:middle;fill:#000000;fill-opacity:1;stroke:none;stroke-width:1px;stroke-linecap:butt;stroke-linejoin:miter;stroke-opacity:1"
     id="text2036"
     xml:space="preserve"><tspan
       x="159.21846"
       y="114.85976"
       style="line-height:80.00000119%;text-align:center;writing-mode:lr-tb;text-anchor:middle"
       id="tspan2038">Indepen</tspan><tspan
       x="159.21846"
       y="121.10109"
       style="line-height:80.00000119%;text-align:center;writing-mode:lr-tb;text-anchor:middle"
       id="tspan2040">dencia</tspan></text>
  <text
     sodipodi:linespacing="100%"
     x="189.46281"
     y="106.84219"
     style="font-style:normal;font-variant:normal;font-weight:normal;font-stretch:normal;font-size:7.80164957px;line-height:100%;font-family:Calibri;text-align:center;writing-mode:lr-tb;text-anchor:middle;fill:#000000;fill-opacity:1;stroke:none;stroke-width:1px;stroke-linecap:butt;stroke-linejoin:miter;stroke-opacity:1"
     id="text2042"
     xml:space="preserve"><tspan
       x="189.46281"
       y="106.84219"
       id="tspan2044">Recoleta</tspan></text>
  <text
     sodipodi:linespacing="100%"
     x="176.16086"
     y="66.644836"
     style="font-style:normal;font-variant:normal;font-weight:normal;font-stretch:normal;font-size:7.80164957px;line-height:100%;font-family:Calibri;text-align:center;writing-mode:lr-tb;text-anchor:middle;fill:#000000;fill-opacity:1;stroke:none;stroke-width:1px;stroke-linecap:butt;stroke-linejoin:miter;stroke-opacity:1"
     id="text2046"
     xml:space="preserve"><tspan
       x="176.16086"
       y="66.644836"
       id="tspan2048">Huechuraba</tspan></text>
  <text
     sodipodi:linespacing="100%"
     x="253.70541"
     y="76.639442"
     style="font-style:normal;font-variant:normal;font-weight:normal;font-stretch:normal;font-size:7.80164957px;line-height:100%;font-family:Calibri;text-align:center;writing-mode:lr-tb;text-anchor:middle;fill:#000000;fill-opacity:1;stroke:none;stroke-width:1px;stroke-linecap:butt;stroke-linejoin:miter;stroke-opacity:1"
     id="text2050"
     xml:space="preserve"><tspan
       x="253.70541"
       y="76.639442"
       id="tspan2052">Vitacura</tspan></text>
  <text
     sodipodi:linespacing="100%"
     x="307.0972"
     y="113.24358"
     style="font-style:normal;font-variant:normal;font-weight:normal;font-stretch:normal;font-size:7.80164957px;line-height:100%;font-family:Calibri;text-align:center;writing-mode:lr-tb;text-anchor:middle;fill:#000000;fill-opacity:1;stroke:none;stroke-width:1px;stroke-linecap:butt;stroke-linejoin:miter;stroke-opacity:1"
     id="text2054"
     xml:space="preserve"><tspan
       x="307.0972"
       y="113.24358"
       id="tspan2056">Las Condes</tspan></text>
  <text
     sodipodi:linespacing="100%"
     x="319.56668"
     y="35.440002"
     style="font-style:normal;font-variant:normal;font-weight:normal;font-stretch:normal;font-size:7.80164957px;line-height:100%;font-family:Calibri;text-align:center;writing-mode:lr-tb;text-anchor:middle;fill:#000000;fill-opacity:1;stroke:none;stroke-width:1px;stroke-linecap:butt;stroke-linejoin:miter;stroke-opacity:1"
     id="text2058"
     xml:space="preserve"><tspan
       x="319.56668"
       y="35.440002"
       id="tspan2060">Lo Barnechea</tspan></text>
  <text
     sodipodi:linespacing="100%"
     x="287.09091"
     y="153.38376"
     style="font-style:normal;font-variant:normal;font-weight:normal;font-stretch:normal;font-size:7.80164957px;line-height:100%;font-family:Calibri;text-align:center;writing-mode:lr-tb;text-anchor:middle;fill:#000000;fill-opacity:1;stroke:none;stroke-width:1px;stroke-linecap:butt;stroke-linejoin:miter;stroke-opacity:1"
     id="text2062"
     xml:space="preserve"><tspan
       x="287.09091"
       y="153.38376"
       id="tspan2064">La Reina</tspan></text>
  <text
     sodipodi:linespacing="100%"
     x="214.58348"
     y="134.10133"
     style="font-style:normal;font-variant:normal;font-weight:normal;font-stretch:normal;font-size:7.80164957px;line-height:100%;font-family:Calibri;text-align:center;writing-mode:lr-tb;text-anchor:middle;fill:#000000;fill-opacity:1;stroke:none;stroke-width:1px;stroke-linecap:butt;stroke-linejoin:miter;stroke-opacity:1"
     id="text2066"
     xml:space="preserve"><tspan
       x="214.58348"
       y="134.10133"
       id="tspan2068">Providencia</tspan></text>
  <text
     sodipodi:linespacing="100%"
     x="223.86491"
     y="167.38501"
     style="font-style:normal;font-variant:normal;font-weight:normal;font-stretch:normal;font-size:7.80164957px;line-height:100%;font-family:Calibri;text-align:center;writing-mode:lr-tb;text-anchor:middle;fill:#000000;fill-opacity:1;stroke:none;stroke-width:1px;stroke-linecap:butt;stroke-linejoin:miter;stroke-opacity:1"
     id="text2070"
     xml:space="preserve"><tspan
       x="223.86491"
       y="167.38501"
       id="tspan2072">Ñuñoa</tspan></text>
  <text
     sodipodi:linespacing="100%"
     x="291.21259"
     y="198.69958"
     style="font-style:normal;font-variant:normal;font-weight:normal;font-stretch:normal;font-size:7.80164957px;line-height:100%;font-family:Calibri;text-align:center;writing-mode:lr-tb;text-anchor:middle;fill:#000000;fill-opacity:1;stroke:none;stroke-width:1px;stroke-linecap:butt;stroke-linejoin:miter;stroke-opacity:1"
     id="text2074"
     xml:space="preserve"><tspan
       x="291.21259"
       y="198.69958"
       id="tspan2076">Peñalolén</tspan></text>
  <text
     sodipodi:linespacing="100%"
     x="224.87837"
     y="203.68198"
     style="font-style:normal;font-variant:normal;font-weight:normal;font-stretch:normal;font-size:7.80164957px;line-height:100%;font-family:Calibri;text-align:center;writing-mode:lr-tb;text-anchor:middle;fill:#000000;fill-opacity:1;stroke:none;stroke-width:1px;stroke-linecap:butt;stroke-linejoin:miter;stroke-opacity:1"
     id="text2078"
     xml:space="preserve"><tspan
       x="224.87837"
       y="203.68198"
       id="tspan2080">Macul</tspan></text>
  <text
     sodipodi:linespacing="100%"
     x="247.91731"
     y="257.68951"
     style="font-style:normal;font-variant:normal;font-weight:normal;font-stretch:normal;font-size:7.80164957px;line-height:100%;font-family:Calibri;text-align:center;writing-mode:lr-tb;text-anchor:middle;fill:#000000;fill-opacity:1;stroke:none;stroke-width:1px;stroke-linecap:butt;stroke-linejoin:miter;stroke-opacity:1"
     id="text2082"
     xml:space="preserve"><tspan
       x="247.91731"
       y="257.68951"
       id="tspan2084">La Florida</tspan></text>
  <text
     sodipodi:linespacing="100%"
     x="257.62543"
     y="330.21899"
     style="font-style:normal;font-variant:normal;font-weight:normal;font-stretch:normal;font-size:7.80164957px;line-height:100%;font-family:Calibri;text-align:center;writing-mode:lr-tb;text-anchor:middle;fill:#000000;fill-opacity:1;stroke:none;stroke-width:1px;stroke-linecap:butt;stroke-linejoin:miter;stroke-opacity:1"
     id="text2086"
     xml:space="preserve"><tspan
       x="257.62543"
       y="330.21899"
       id="tspan2088">Puente Alto</tspan></text>
  <text
     sodipodi:linespacing="100%"
     x="250.53157"
     y="375.06165"
     style="font-style:normal;font-variant:normal;font-weight:normal;font-stretch:normal;font-size:7.80164957px;line-height:100%;font-family:Calibri;text-align:center;writing-mode:lr-tb;text-anchor:middle;fill:#000000;fill-opacity:1;stroke:none;stroke-width:1px;stroke-linecap:butt;stroke-linejoin:miter;stroke-opacity:1"
     id="text2090"
     xml:space="preserve"><tspan
       x="250.53157"
       y="375.06165"
       id="tspan2092">Pirque</tspan></text>
  <text
     sodipodi:linespacing="100%"
     x="338.61234"
     y="295.86978"
     style="font-style:normal;font-variant:normal;font-weight:normal;font-stretch:normal;font-size:7.80164957px;line-height:100%;font-family:Calibri;text-align:center;writing-mode:lr-tb;text-anchor:middle;fill:#000000;fill-opacity:1;stroke:none;stroke-width:1px;stroke-linecap:butt;stroke-linejoin:miter;stroke-opacity:1"
     id="text2094"
     xml:space="preserve"><tspan
       x="339.49612"
       y="295.86978"
       id="tspan2096">San José </tspan><tspan
       x="338.61234"
       y="303.67142"
       id="tspan2098">de Maipo</tspan></text>
  <text
     sodipodi:linespacing="100%"
     x="190.62193"
     y="317.74377"
     style="font-style:normal;font-variant:normal;font-weight:normal;font-stretch:normal;font-size:7.80164957px;line-height:100%;font-family:Calibri;text-align:center;writing-mode:lr-tb;text-anchor:middle;fill:#000000;fill-opacity:1;stroke:none;stroke-width:1px;stroke-linecap:butt;stroke-linejoin:miter;stroke-opacity:1"
     id="text2100"
     xml:space="preserve"><tspan
       x="190.62193"
       y="317.74377"
       id="tspan2102">La Pintana</tspan></text>
  <text
     sodipodi:linespacing="100%"
     x="130.87981"
     y="331.42532"
     style="font-style:normal;font-variant:normal;font-weight:normal;font-stretch:normal;font-size:7.80164957px;line-height:100%;font-family:Calibri;text-align:center;writing-mode:lr-tb;text-anchor:middle;fill:#000000;fill-opacity:1;stroke:none;stroke-width:1px;stroke-linecap:butt;stroke-linejoin:miter;stroke-opacity:1"
     id="text2104"
     xml:space="preserve"><tspan
       x="130.87981"
       y="331.42532"
       id="tspan2106">San Bernardo</tspan></text>
  <text
     sodipodi:linespacing="100%"
     x="152.58632"
     y="290.10156"
     style="font-style:normal;font-variant:normal;font-weight:normal;font-stretch:normal;font-size:7.80164957px;line-height:100%;font-family:Calibri;text-align:center;writing-mode:lr-tb;text-anchor:middle;fill:#000000;fill-opacity:1;stroke:none;stroke-width:1px;stroke-linecap:butt;stroke-linejoin:miter;stroke-opacity:1"
     id="text2108"
     xml:space="preserve"><tspan
       x="152.58632"
       y="290.10156"
       id="tspan2110">El Bosque</tspan></text>
  <text
     sodipodi:linespacing="100%"
     x="138.04086"
     y="240.11223"
     style="font-style:normal;font-variant:normal;font-weight:normal;font-stretch:normal;font-size:7.80164957px;line-height:100%;font-family:Calibri;text-align:center;writing-mode:lr-tb;text-anchor:middle;fill:#000000;fill-opacity:1;stroke:none;stroke-width:1px;stroke-linecap:butt;stroke-linejoin:miter;stroke-opacity:1"
     id="text2112"
     xml:space="preserve"><tspan
       x="138.04086"
       y="240.11223"
       id="tspan2114">Lo Espejo</tspan></text>
  <text
     sodipodi:linespacing="100%"
     x="150.05426"
     y="199.65239"
     style="font-style:normal;font-variant:normal;font-weight:normal;font-stretch:normal;font-size:7.80164957px;line-height:100%;font-family:Calibri;text-align:center;writing-mode:lr-tb;text-anchor:middle;fill:#000000;fill-opacity:1;stroke:none;stroke-width:1px;stroke-linecap:butt;stroke-linejoin:miter;stroke-opacity:1"
     id="text2116"
     xml:space="preserve"><tspan
       x="150.05426"
       y="199.65239"
       id="tspan2118">Pedro</tspan><tspan
       x="150.05426"
       y="207.45404"
       id="tspan2120">Aguirre</tspan><tspan
       x="150.05426"
       y="215.25568"
       id="tspan2122">Cerda</tspan></text>
  <text
     sodipodi:linespacing="100%"
     x="172.68779"
     y="209.19518"
     style="font-style:normal;font-variant:normal;font-weight:normal;font-stretch:normal;font-size:7.80164957px;line-height:100%;font-family:Calibri;text-align:center;writing-mode:lr-tb;text-anchor:middle;fill:#000000;fill-opacity:1;stroke:none;stroke-width:1px;stroke-linecap:butt;stroke-linejoin:miter;stroke-opacity:1"
     id="text2124"
     xml:space="preserve"><tspan
       x="172.68779"
       y="209.19518"
       id="tspan2126">San</tspan><tspan
       x="172.68779"
       y="216.99686"
       id="tspan2128">Miguel</tspan></text>
  <text
     sodipodi:linespacing="100%"
     x="162.4839"
     y="247.38147"
     style="font-style:normal;font-variant:normal;font-weight:normal;font-stretch:normal;font-size:7.80164957px;line-height:100%;font-family:Calibri;text-align:center;writing-mode:lr-tb;text-anchor:middle;fill:#000000;fill-opacity:1;stroke:none;stroke-width:1px;stroke-linecap:butt;stroke-linejoin:miter;stroke-opacity:1"
     id="text2130"
     xml:space="preserve"><tspan
       x="162.4839"
       y="247.38147"
       id="tspan2132">La</tspan><tspan
       x="162.4839"
       y="255.18309"
       id="tspan2134">Cisterna</tspan></text>
  <text
     sodipodi:linespacing="100%"
     x="184.26897"
     y="263.37906"
     style="font-style:normal;font-variant:normal;font-weight:normal;font-stretch:normal;font-size:7.80164957px;line-height:100%;font-family:Calibri;text-align:center;writing-mode:lr-tb;text-anchor:middle;fill:#000000;fill-opacity:1;stroke:none;stroke-width:1px;stroke-linecap:butt;stroke-linejoin:miter;stroke-opacity:1"
     id="text2136"
     xml:space="preserve"><tspan
       x="184.26897"
       y="263.37906"
       id="tspan2140">San</tspan><tspan
       x="184.26897"
       y="271.18069"
       id="tspan2144">Ramón</tspan></text>
  <text
     sodipodi:linespacing="100%"
     x="199.48042"
     y="205.541"
     style="font-style:normal;font-variant:normal;font-weight:normal;font-stretch:normal;font-size:7.80164957px;line-height:100%;font-family:Calibri;text-align:center;writing-mode:lr-tb;text-anchor:middle;fill:#000000;fill-opacity:1;stroke:none;stroke-width:1px;stroke-linecap:butt;stroke-linejoin:miter;stroke-opacity:1"
     id="text2146"
     xml:space="preserve"><tspan
       x="199.48042"
       y="205.541"
       id="tspan2148">San</tspan><tspan
       x="199.48042"
       y="213.34268"
       id="tspan2150">Joaquín</tspan></text>
  <text
     sodipodi:linespacing="100%"
     x="204.1458"
     y="250.25166"
     style="font-style:normal;font-variant:normal;font-weight:normal;font-stretch:normal;font-size:7.80164957px;line-height:100%;font-family:Calibri;text-align:center;writing-mode:lr-tb;text-anchor:middle;fill:#000000;fill-opacity:1;stroke:none;stroke-width:1px;stroke-linecap:butt;stroke-linejoin:miter;stroke-opacity:1"
     id="text2152"
     xml:space="preserve"><tspan
       x="205.02959"
       y="250.25166"
       id="tspan2154">La </tspan><tspan
       x="204.1458"
       y="258.05331"
       id="tspan2156">Granja</tspan></text>
</svg>
